# xmcd CD database file
#
# Track frame offsets:
#	182
#	17650
#	32072
#	48040
#	67215
#	85365
#	105907
#	122715
#	134595
#	152265
#
# Disc length: 2268 seconds
#
# Revision: 2
# Processed by: cddbd v1.5.1PL0 Copyright (c) Steve Scherf et al.
# Submitted via: CDex 1.51
#
DISCID=7908da0a
DTITLE=Garth Brooks - In Pieces
DYEAR=1993
DGENRE=Country
TTITLE0=Standing Out Side The Fire - Garth Brooks
TTITLE1=The Night I Called The Old Man - Garth Brooks
TTITLE2=American Honky-Tonk Bar Associa - Garth Brooks
TTITLE3=One Night A Day - Garth Brooks
TTITLE4=Kickin' And Screamin' - Garth Brooks
TTITLE5=Ain't Goin' Down - Garth Brooks
TTITLE6=The Red Strokes - Garth Brooks
TTITLE7=Callin' Baton Rouge - Garth Brooks
TTITLE8=The Night Will Only Know - Garth Brooks
TTITLE9=The Cowboy Song - Garth Brooks
EXTD=Original 1993 Release YEAR: 1993
EXTT0=
EXTT1=
EXTT2=
EXTT3=
EXTT4=
EXTT5=
EXTT6=
EXTT7=
EXTT8=
EXTT9=
PLAYORDER=
